<?xml version="1.0" encoding="UTF-8"?>
<svg width="512px" height="512px" viewBox="0 0 512 512" version="1.1" xmlns="http://www.w3.org/2000/svg" xmlns:xlink="http://www.w3.org/1999/xlink">
    <!-- Generator: Sketch 55.2 (78181) - https://sketchapp.com -->
    <title>play/ic_launcher_APP</title>
    <desc>Created with Sketch.</desc>
    <g id="play/ic_launcher_APP" stroke="none" stroke-width="1" fill="none" fill-rule="evenodd">
        <rect fill="#A49DDC" x="0" y="0" width="512" height="512"></rect>
        <path d="M203,203 C290.022365,316.95751 354.376943,373.936265 396.063735,373.936265 C437.750527,373.936265 494.729282,316.95751 567,203 L567,567 L203,567 L203,203 Z" id="Rectangle" fill-opacity="0.2" fill="#000000" transform="translate(385.000000, 385.000000) rotate(-45.000000) translate(-385.000000, -385.000000) "></path>
        <g id="Group-2" transform="translate(90.000000, 50.000000)"></g>
        <path d="M132.073478,75 C131.79346,117.704154 132.404033,179.824577 132.404033,225.214093 C132.404033,304.072572 188.16393,368 256.947248,368 C325.730567,368 381.490463,304.072572 381.490463,225.214093 C381.490463,179.824577 382.101037,117.704154 381.821019,75 L424,75 L424,233 C424,330.754401 349.231553,410 257,410 C164.768447,410 90,330.754401 90,233 L90,75 L132.073478,75 Z M132.404033,75 L132.404033,75 L132.404033,225.704767 L132.404033,75 Z M381.445679,75 L381.490463,75 L381.490463,225.704767 C381.434646,158.548411 381.434646,115.221 381.490463,95.7225343 C381.513309,87.7419553 381.476745,80.8433781 381.445679,75 Z" id="Combined-Shape" fill="#9B7EAC"></path>
        <path d="M256,438 C155.484176,438 74,356.515824 74,256 C74,155.484176 155.484176,74 256,74 C356.515824,74 438,155.484176 438,256 C438,356.515824 356.515824,438 256,438 Z M256,402 C336.633573,402 402,336.633573 402,256 C402,175.366427 336.633573,110 256,110 C175.366427,110 110,175.366427 110,256 C110,336.633573 175.366427,402 256,402 Z" id="Combined-Shape" fill="#9DCEDC"></path>
        <path d="M90,233 L90,75 L90,233 Z M132.404033,75 L132.404033,75 L132.404033,225.704767 L132.404033,75 Z M381.445679,75 L381.490463,75 L381.490463,225.704767 C381.434646,158.548411 381.434646,115.221 381.490463,95.7225343 C381.513309,87.7419553 381.476745,80.8433781 381.445679,75 Z M381.821019,75 L424,75 L424,233 C424,330.754401 350.231553,402 258,402 L258,367.995005 C326.298615,367.346689 381.490463,303.669862 381.490463,225.214093 C381.490463,179.824577 382.101037,117.704154 381.821019,75 Z" id="Combined-Shape" fill="#9B7EAC" transform="translate(257.000000, 238.500000) scale(-1, 1) translate(-257.000000, -238.500000) "></path>
    </g>
</svg>